<svg xmlns="http://www.w3.org/2000/svg" viewBox="0 0 295.88 75.61"><defs><style>.cls-1{fill:#231815;}.cls-2{fill:none;}.cls-2,.cls-3{stroke:#000;stroke-miterlimit:10;stroke-width:2px;}.cls-3{fill:#fff;}</style></defs><title>アセット 1</title><g id="レイヤー_2" data-name="レイヤー 2"><g id="レイヤー_2-2" data-name="レイヤー 2"><path d="M103.1,17.57h13.32V47.09h11v10.5H103.1Zm21,35.22V51.35H110.66v-29H109.1V52.79Z"/><path d="M129.56,17.57h13.56v40H129.56Zm7.56,35.22V22.37h-1.56V52.79Z"/><path d="M158,17.57,164.78,35l6.84-17.4h14l-15.6,40H159.62l-15.6-40Zm7.44,35.22,11.88-30.42h-1.68L164.78,50,154,22.37H152.3l11.88,30.42Z"/><path d="M186.5,17.57h13.32V47.09h11v10.5H186.5Zm21,35.22V51.35H194.06v-29H192.5V52.79Z"/><path d="M212.06,37.61a20.44,20.44,0,0,1,1.65-8.16A21,21,0,0,1,224.9,18.26a21,21,0,0,1,16.32,0,21,21,0,0,1,11.19,11.19,21,21,0,0,1,0,16.32A21,21,0,0,1,241.22,57a21,21,0,0,1-16.32,0,21,21,0,0,1-11.19-11.19A20.44,20.44,0,0,1,212.06,37.61Zm5.64,0a14.93,14.93,0,0,0,1.2,6,15.48,15.48,0,0,0,8.19,8.19,15.45,15.45,0,0,0,11.94,0,15.49,15.49,0,0,0,8.19-8.19,15.46,15.46,0,0,0,0-11.94A15.49,15.49,0,0,0,239,23.45a15.45,15.45,0,0,0-11.94,0,15.48,15.48,0,0,0-8.19,8.19A14.94,14.94,0,0,0,217.7,37.61Zm15.36,13.8a13.35,13.35,0,0,1-5.37-1.08A14,14,0,0,1,220.34,43a13.89,13.89,0,0,1,0-10.74,14,14,0,0,1,7.35-7.35,13.9,13.9,0,0,1,10.74,0,14,14,0,0,1,7.35,7.35,13.89,13.89,0,0,1,0,10.74,14,14,0,0,1-7.35,7.35A13.35,13.35,0,0,1,233.06,51.41Zm-8.4-13.8a8.16,8.16,0,0,0,.66,3.27,8.43,8.43,0,0,0,4.47,4.47,8.43,8.43,0,0,0,6.54,0,8.43,8.43,0,0,0,4.47-4.47,8.44,8.44,0,0,0,0-6.54,8.43,8.43,0,0,0-4.47-4.47,8.43,8.43,0,0,0-6.54,0,8.43,8.43,0,0,0-4.47,4.47A8.16,8.16,0,0,0,224.66,37.61Z"/><path d="M282.86,31.19a7.3,7.3,0,0,0-2.7-1.47,10.58,10.58,0,0,0-3.18-.51,7.85,7.85,0,0,0-3.18.63,7.55,7.55,0,0,0-2.49,1.74,8,8,0,0,0-1.65,2.67,9.27,9.27,0,0,0-.6,3.36,8.52,8.52,0,0,0,.66,3.36,8,8,0,0,0,1.8,2.67,8.32,8.32,0,0,0,2.67,1.74,8.5,8.5,0,0,0,3.27.63,8,8,0,0,0,3.72-.87,8.89,8.89,0,0,0,2.88-2.37h-3.6v-8.4h15.42V47.69a22.11,22.11,0,0,1-3.3,4.47,21,21,0,0,1-4.29,3.45,20.65,20.65,0,0,1-5.13,2.22,20.9,20.9,0,0,1-26.7-20.22A21.47,21.47,0,0,1,258,29.45a21,21,0,0,1,4.29-6.69,20.06,20.06,0,0,1,6.48-4.5,19.81,19.81,0,0,1,8.07-1.65,22.65,22.65,0,0,1,5.82.66,22.25,22.25,0,0,1,4.14,1.5,15.18,15.18,0,0,1,3.3,2.1Zm.6-7.74a10,10,0,0,0-1.74-.6,17.13,17.13,0,0,0-2-.42,16.28,16.28,0,0,0-2.52-.18,15.42,15.42,0,0,0-5.94,1.14,14.83,14.83,0,0,0-4.8,3.15,14.49,14.49,0,0,0-3.21,4.83,16.15,16.15,0,0,0-1.17,6.24,15.76,15.76,0,0,0,1.2,6.24,14.38,14.38,0,0,0,3.3,4.83,15.42,15.42,0,0,0,4.89,3.15,15.62,15.62,0,0,0,6,1.14A14.67,14.67,0,0,0,285,51a16,16,0,0,0,5.46-5.19V38h-6.36v1.44h4.8v6a13.56,13.56,0,0,1-11.4,6,14.4,14.4,0,0,1-5.37-1,13.12,13.12,0,0,1-7.35-7.2,14.23,14.23,0,0,1-1.08-5.61,14.59,14.59,0,0,1,1-5.61,13.23,13.23,0,0,1,2.88-4.38,12.71,12.71,0,0,1,4.29-2.82,14.17,14.17,0,0,1,5.34-1,11.06,11.06,0,0,1,2,.18q1,.18,1.68.36t1.56.48Z"/><polygon class="cls-1" points="40.64 1.06 80.28 15.49 40.64 29.92 1 15.49 40.64 1.06"/><polygon class="cls-2" points="1 60.12 1 15.49 40.64 1.06 80.28 15.49 80.28 60.12 40.64 74.55 1 60.12"/><polygon class="cls-3" points="64.27 18.31 56.5 15.49 56.71 6.91 64.42 4.11 72.35 7 72.19 15.55 64.27 18.31"/><line class="cls-2" x1="40.64" y1="74.55" x2="40.64" y2="29.92"/><line class="cls-2" x1="80.28" y1="15.49" x2="40.64" y2="29.92"/><line class="cls-2" x1="1" y1="15.49" x2="40.64" y2="29.92"/><line class="cls-3" x1="64.42" y1="9.88" x2="72.35" y2="7"/><line class="cls-3" x1="64.42" y1="18.38" x2="64.42" y2="9.88"/><line class="cls-3" x1="56.5" y1="7" x2="64.42" y2="9.88"/><g id="LINE"><line class="cls-3" x1="30.73" y1="26.31" x2="30.73" y2="70.94"/></g><g id="LINE-2" data-name="LINE"><line class="cls-3" x1="20.82" y1="22.71" x2="20.82" y2="67.34"/></g><g id="LINE-3" data-name="LINE"><line class="cls-3" x1="10.91" y1="19.1" x2="10.91" y2="63.73"/></g><g id="LINE-4" data-name="LINE"><line class="cls-3" x1="40.64" y1="41.08" x2="80.28" y2="26.65"/></g><g id="LINE-5" data-name="LINE"><line class="cls-3" x1="40.64" y1="52.23" x2="80.28" y2="37.81"/></g><g id="LINE-6" data-name="LINE"><line class="cls-3" x1="40.64" y1="63.39" x2="80.28" y2="48.96"/></g></g></g></svg>